<?xml version="1.0" standalone="no"?>
<!DOCTYPE svg PUBLIC "-//W3C//DTD SVG 20010904//EN"
 "http://www.w3.org/TR/2001/REC-SVG-20010904/DTD/svg10.dtd">
<svg version="1.0" xmlns="http://www.w3.org/2000/svg"
 width="235.000000pt" height="249.000000pt" viewBox="0 0 235.000000 249.000000"
 preserveAspectRatio="xMidYMid meet">

<g transform="translate(0.000000,249.000000) scale(0.100000,-0.100000)"
fill="#000000" stroke="none">
<path d="M1117 2423 c-19 -27 -108 -156 -199 -288 -447 -652 -457 -667 -494
-810 -24 -94 -24 -265 0 -360 38 -152 165 -355 230 -369 16 -3 49 -6 75 -6
l47 0 -66 68 c-69 70 -80 94 -80 185 0 29 -4 37 -18 37 -11 0 -26 8 -35 18
-14 16 -17 43 -17 175 l0 157 28 31 c23 26 38 33 80 37 51 4 67 17 37 29 -42
16 -62 145 -29 191 21 30 66 52 109 52 26 0 45 -9 71 -33 31 -28 37 -42 41
-83 5 -52 -10 -97 -41 -123 -24 -20 -19 -31 14 -31 34 0 94 -22 104 -38 3 -6
-13 -23 -36 -39 -73 -48 -78 -68 -78 -306 l0 -208 26 -26 c19 -19 25 -33 22
-53 l-4 -28 44 13 c54 17 51 14 45 47 -4 23 -11 28 -33 28 -57 0 -60 12 -60
231 0 217 5 240 56 274 14 9 53 20 85 22 62 6 74 19 38 41 -28 18 -59 88 -59
136 0 49 31 114 67 141 40 29 129 32 171 6 49 -32 72 -76 72 -144 0 -61 -14
-100 -49 -131 -34 -31 -26 -43 34 -48 64 -5 102 -29 127 -79 15 -29 18 -63 18
-225 0 -172 -2 -193 -18 -207 -10 -10 -30 -17 -44 -17 -29 0 -34 -11 -47 -121
-10 -79 -37 -123 -102 -166 -22 -14 -38 -28 -36 -30 2 -1 44 4 93 12 77 14 95
21 141 58 100 79 132 98 183 106 59 9 96 40 166 137 154 215 194 477 107 717
-37 105 -29 91 -481 750 -96 138 -185 267 -198 285 -36 47 -64 43 -107 -15z
m153 -368 l0 -75 75 0 75 0 0 -100 0 -100 -75 0 -75 0 0 -75 0 -76 -92 3 -93
3 -3 72 -3 72 -72 3 -72 3 -3 98 -3 97 76 0 75 0 0 75 0 75 95 0 95 0 0 -75z
m388 -519 c35 -33 37 -37 37 -100 0 -57 -3 -68 -27 -93 -16 -16 -28 -32 -28
-36 0 -4 17 -7 38 -7 46 0 99 -31 112 -66 6 -14 10 -89 10 -167 0 -152 -9
-187 -50 -187 -16 0 -20 -11 -26 -71 -7 -72 -7 -72 -74 -143 -64 -67 -174
-146 -186 -133 -3 3 -8 33 -11 66 -5 55 -4 62 18 80 24 19 24 22 27 222 4 242
-3 271 -75 320 l-45 31 20 21 c13 13 38 22 71 25 51 5 63 14 38 29 -29 17 -47
59 -47 106 0 86 44 136 123 137 29 0 46 -8 75 -34z"/>
<path d="M80 824 c0 -12 53 -140 80 -194 50 -100 106 -177 198 -272 382 -396
992 -459 1455 -150 77 51 93 72 77 102 -12 22 -41 26 -72 9 -26 -14 -33 -6
-18 21 29 53 -24 85 -89 53 l-39 -19 6 38 c12 93 -55 91 -169 -7 -122 -104
-273 -150 -417 -125 -71 12 -153 46 -159 66 -2 6 25 16 65 23 208 37 367 195
244 242 -36 14 -75 6 -217 -44 l-120 -42 -160 0 c-158 0 -161 1 -263 36 -131
46 -248 116 -334 200 -37 37 -68 65 -68 63z"/>
</g>
</svg>
